<svg xmlns="http://www.w3.org/2000/svg" viewBox="0 0 73.04 84"><defs><style>.cls-1{fill:none;}</style></defs><title>LeftArm</title><g id="Layer_2" data-name="Layer 2"><g id="Layer_1-2" data-name="Layer 1"><rect class="cls-1" width="68" height="84"/><path d="M26.6,56.9a2.49,2.49,0,0,1-1.86-4.16L68.18,4.14A2.49,2.49,0,0,1,70,3.31a2.55,2.55,0,0,1,1.67.63,2.49,2.49,0,0,1,.82,1.73,2.45,2.45,0,0,1-.62,1.8L28.46,56.07A2.49,2.49,0,0,1,26.6,56.9Z"/><path d="M70,3.81h0a2,2,0,0,1,1.33.51,2,2,0,0,1,.16,2.82L28.09,55.74a2,2,0,1,1-3-2.67L68.55,4.47A2,2,0,0,1,70,3.81m0-1a3,3,0,0,0-2.24,1L24.36,52.41a3,3,0,0,0,4.48,4L72.28,7.81A3,3,0,0,0,72,3.57a3,3,0,0,0-2-.76Z"/></g></g></svg>