<svg xmlns="http://www.w3.org/2000/svg" viewBox="0 0 67 84"><defs><style>.cls-1{fill:none;}</style></defs><title>LeftLeg</title><g id="Layer_2" data-name="Layer 2"><g id="Layer_1-2" data-name="Layer 1"><rect class="cls-1" width="67" height="84"/><path d="M4.67,71.3A2.49,2.49,0,0,1,3,70.67a2.5,2.5,0,0,1-.2-3.53L61.46,1.53A2.51,2.51,0,0,1,65,1.33a2.5,2.5,0,0,1,.2,3.53L6.54,70.47A2.49,2.49,0,0,1,4.67,71.3Z"/><path d="M63.33,1.2a2,2,0,0,1,1.33.5,2,2,0,0,1,.15,2.83L6.17,70.14a2,2,0,0,1-1.5.66,2,2,0,0,1-1.33-.5,2,2,0,0,1-.15-2.83L61.83,1.86a2,2,0,0,1,1.5-.66m0-1a3,3,0,0,0-2.24,1L2.44,66.81A3,3,0,0,0,2.68,71h0a3,3,0,0,0,4.23-.24L65.56,5.19A3,3,0,0,0,65.32,1h0a3,3,0,0,0-2-.76Z"/></g></g></svg>