<svg xmlns="http://www.w3.org/2000/svg" viewBox="0 0 71.4 84"><defs><style>.cls-1{fill:none;}</style></defs><title>RightArm</title><g id="Layer_2" data-name="Layer 2"><g id="Layer_1-2" data-name="Layer 1"><rect class="cls-1" x="4.4" width="67" height="84"/><path d="M46.44,56.9a2.52,2.52,0,0,1-1.87-.83L1.13,7.47a2.5,2.5,0,0,1,.2-3.53A2.54,2.54,0,0,1,3,3.31a2.49,2.49,0,0,1,1.87.83L48.3,52.74a2.5,2.5,0,0,1-.2,3.53,2.45,2.45,0,0,1-1.66.63Z"/><path d="M3,3.81a2,2,0,0,1,1.5.66l43.44,48.6a2,2,0,0,1-1.49,3.33A2,2,0,0,1,45,55.74L1.51,7.14A2,2,0,0,1,3,3.81m0-1a3,3,0,0,0-2,.76A3,3,0,0,0,.76,7.81L44.2,56.41a3,3,0,0,0,4.47-4L5.23,3.81A3,3,0,0,0,3,2.81Z"/></g></g></svg>