<svg xmlns="http://www.w3.org/2000/svg" viewBox="0 0 67 84"><defs><style>.cls-1{fill:none;}</style></defs><title>RightLeg</title><g id="Layer_2" data-name="Layer 2"><g id="Layer_1-2" data-name="Layer 1"><rect class="cls-1" width="67" height="84"/><path d="M62.33,71.3a2.49,2.49,0,0,1-1.87-.83L1.81,4.86A2.5,2.5,0,0,1,2,1.33a2.51,2.51,0,0,1,3.53.2L64.19,67.14a2.5,2.5,0,0,1-.2,3.53,2.49,2.49,0,0,1-1.66.63Z"/><path d="M3.67,1.2a2,2,0,0,1,1.5.66L63.81,67.47a2,2,0,0,1,.51,1.45,2,2,0,0,1-2,1.88,2,2,0,0,1-1.5-.66L2.19,4.53a2,2,0,0,1-.51-1.45,2,2,0,0,1,2-1.88m0-1a3,3,0,0,0-2,.76h0a3,3,0,0,0-.24,4.23L60.09,70.8a3,3,0,0,0,4.23.24h0a3,3,0,0,0,.24-4.23L5.91,1.2A3,3,0,0,0,3.67.2Z"/></g></g></svg>